<?xml version="1.0" encoding="UTF-8"?><svg id="uuid-f642bd9d-4f0e-44ff-808f-30c49d078f5d" xmlns="http://www.w3.org/2000/svg" viewBox="0 0 211 211"><rect width="211" height="211" style="fill:#ea5b0c;"/><path d="M62.164,79.034c0-3.553,2.207-5.881,4.903-5.881,4.537,0,9.073,2.45,15.57,7.842,2.697-1.348,5.272-5.268,5.272-10.047,0-7.351-5.272-14.948-18.513-14.948-15.448,0-25.992,14.58-25.992,28.181,0,7.596,2.084,14.458,8.583,22.789,11.401,14.458,12.137,17.766,12.137,21.811,0,6.249-3.677,10.536-8.337,10.536-8.214,0-15.815-7.351-15.815-24.015v-2.328c-1.103-1.348-2.942-1.961-5.027-1.961-8.582,0-13.363,10.415-13.363,19.359,0,13.478,9.563,24.628,28.443,24.628,20.597,0,33.348-16.541,33.348-30.386,0-7.229-1.717-12.375-12.015-26.956-7.111-9.925-9.195-14.703-9.195-18.625Z" style="fill:#fff;"/><path d="M179.487,90.306c-6.498,0-12.138,6.004-12.138,12.376,0,.98.122,1.838.368,2.94,4.414,1.347,5.64,3.064,5.64,7.719,0,8.086-6.743,19.482-11.279,19.482-1.472,0-2.084-1.716-2.084-12.376,0-4.411.859-13.478,2.084-21.074,14.957-20.952,19.37-30.141,19.37-35.043,0-5.881-3.065-8.331-7.969-8.331-14.441,0-28.88,32.682-31.093,61.575-6.829,9.075-11.953,13.165-14.524,13.165-.981,0-1.716-.368-1.716-1.96,0-2.329,5.149-13.723,7.724-20.707,1.839-4.902,2.329-7.352,2.329-9.558,0-5.024-5.027-9.924-11.892-9.924-1.84,0-3.923.735-5.15,2.327-.613,10.538-2.329,19.115-6.497,32.347-2.452,2.573-6.376,5.515-8.459,5.515-1.716,0-2.453-1.226-2.453-3.186s.736-5.636,1.962-10.047c6.252-10.17,9.44-17.521,9.44-21.443,0-3.675-2.084-4.9-5.885-4.9-8.582,0-20.351,13.722-20.351,21.319,0,2.45.245,5.024,1.594,7.597-3.188,7.842-4.904,14.947-4.904,18.623,0,7.352,1.716,11.518,8.95,11.518,5.517,0,12.995-5.146,18.881-16.296-.49,2.573-.736,4.657-.736,6.371,0,6.372,3.065,7.965,8.092,7.965,5.149,0,11.647-3.922,17.409-9.067,2.218-1.949,4.341-4.066,6.212-6.189,1.268,11.259,6.357,16.236,14.885,16.236,16.061,0,32.122-24.751,32.122-43.619,0-9.312-3.31-13.356-9.931-13.356Z" style="fill:#fff;"/></svg>